<svg xmlns="http://www.w3.org/2000/svg" width="21" height="21" viewBox="0 0 21 21"><g transform="translate(-15.5 37.5)"><g transform="translate(16 -37)"><g transform="translate(0)"><g transform="translate(0 0)"><circle cx="10" cy="10" r="10" fill="rgba(255,255,255,0)" stroke="#fff" stroke-width="1"/><g transform="translate(5.3 3.893)"><path d="M5.971,8.142H0A1.429,1.429,0,0,0,1.492,9.5H5.97A1.43,1.43,0,0,0,7.462,8.142V2.569a.051.051,0,0,0-.054-.049H6.024a.052.052,0,0,0-.054.05V8.142ZM5.971,0A1.429,1.429,0,0,1,7.463,1.357H1.493V6.929a.052.052,0,0,1-.054.049H.054A.052.052,0,0,1,0,6.929V1.357A1.43,1.43,0,0,1,1.492,0H5.971Z" transform="translate(0.969 1.233)" fill="#fff"/></g></g></g></g></g></svg>