<svg xmlns="http://www.w3.org/2000/svg" width="21" height="21" viewBox="0 0 21 21"><g transform="translate(-0.5 -0.5)"><g transform="translate(1 1)"><g transform="translate(0 0)"><g transform="translate(0)"><circle cx="10" cy="10" r="10" fill="rgba(255,255,255,0)" stroke="#fff" stroke-width="1"/><g transform="translate(2.105 4.5)"><path d="M9.373.649C9.107.176,8.819.089,8.233.056S6.173,0,4.9,0,2.142.017,1.556.056.682.176.414.649A5.774,5.774,0,0,0,0,3.363v0H0a5.753,5.753,0,0,0,.414,2.71c.268.472.556.558,1.142.6s2.061.054,3.34.054,2.751-.02,3.337-.054.875-.125,1.14-.6a5.717,5.717,0,0,0,.415-2.71v0A5.729,5.729,0,0,0,9.373.649ZM3.671,5.2V1.53L6.73,3.365Z" transform="translate(3.105 2.135)" fill="#fff"/></g></g></g></g></g></svg>