<svg xmlns="http://www.w3.org/2000/svg" width="21" height="21" viewBox="0 0 21 21"><g transform="translate(-11.5 52.5)"><g transform="translate(12 -52)"><g transform="translate(0)"><g transform="translate(0)"><g transform="translate(0)"><circle cx="10" cy="10" r="10" fill="rgba(255,255,255,0)" stroke="#fff" stroke-width="1"/><g transform="translate(3.928 4.416)"><path d="M9.034,5.311v3.34H7.1V5.535c0-.783-.28-1.317-.981-1.317a1.06,1.06,0,0,0-.994.708,1.325,1.325,0,0,0-.064.472V8.651H3.122s.026-5.278,0-5.825H5.059v.826l-.013.019h.013V3.652A1.923,1.923,0,0,1,6.8,2.689C8.079,2.689,9.034,3.522,9.034,5.311ZM1.1.018A1.009,1.009,0,1,0,1.07,2.031h.013A1.01,1.01,0,1,0,1.1.018ZM.115,8.651H2.051V2.826H.115Z" transform="translate(1.406 1.325)" fill="#fff"/></g></g></g></g></g></g></svg>