<svg xmlns="http://www.w3.org/2000/svg" width="21" height="21" viewBox="0 0 21 21"><g transform="translate(-5.5 -9.5)"><g transform="translate(6 10)"><circle cx="10" cy="10" r="10" fill="rgba(255,255,255,0)" stroke="#fff" stroke-width="1"/><g transform="translate(5.275 3.419)"><path d="M5.8,6.928H3.518a1.137,1.137,0,0,1-1.14-1.144V4.973H5.626A1.074,1.074,0,0,0,6.7,3.9,1.076,1.076,0,0,0,5.622,2.831H2.378V1.155A1.116,1.116,0,0,0,2.04.34,1.1,1.1,0,0,0,1.232,0,1.125,1.125,0,0,0,.41.334a1.111,1.111,0,0,0-.336.823V5.784a3.33,3.33,0,0,0,1.01,2.44A3.313,3.313,0,0,0,3.519,9.238H5.8a1.153,1.153,0,0,0,.814-1.97A1.113,1.113,0,0,0,5.8,6.928Z" transform="translate(1.414 1.999)" fill="#fff"/></g></g></g></svg>